<svg width="221.3" height="66.65" viewBox="0 0 221.3 66.65" xmlns="http://www.w3.org/2000/svg"><g id="svgGroup" stroke-linecap="round" fill-rule="evenodd" font-size="9pt" stroke="#000" stroke-width="0.25mm" fill="#000" style="stroke:#000;stroke-width:0.25mm;fill:#000"><path d="M 171.15 66.65 L 144.4 66.65 A 1.799 1.799 0 0 1 143.906 66.588 Q 143.351 66.429 143.204 65.863 A 1.842 1.842 0 0 1 143.15 65.4 L 143.15 1.25 A 1.799 1.799 0 0 1 143.212 0.756 Q 143.371 0.201 143.937 0.053 A 1.842 1.842 0 0 1 144.4 0 L 157.75 0 A 1.799 1.799 0 0 1 158.245 0.062 Q 158.8 0.221 158.947 0.787 A 1.842 1.842 0 0 1 159 1.25 L 159 15 L 161.5 12.5 A 2.62 2.62 0 0 1 163.407 11.651 A 3.323 3.323 0 0 1 163.5 11.65 L 171.15 11.65 Q 172.3 11.65 173.15 12.5 L 183.15 22.5 A 2.62 2.62 0 0 1 183.999 24.407 A 3.323 3.323 0 0 1 184 24.5 L 184 53.8 A 2.775 2.775 0 0 1 183.778 54.924 A 2.664 2.664 0 0 1 183.15 55.8 L 173.15 65.8 Q 172.3 66.65 171.15 66.65 Z M 81.75 66.65 L 53.75 66.65 A 1.799 1.799 0 0 1 53.256 66.588 Q 52.701 66.429 52.554 65.863 A 1.842 1.842 0 0 1 52.5 65.4 L 52.5 1.25 A 1.799 1.799 0 0 1 52.562 0.756 Q 52.721 0.201 53.287 0.053 A 1.842 1.842 0 0 1 53.75 0 L 67.9 0 A 1.799 1.799 0 0 1 68.395 0.062 Q 68.95 0.221 69.097 0.787 A 1.842 1.842 0 0 1 69.15 1.25 L 69.15 53.3 L 81.75 53.3 A 1.799 1.799 0 0 1 82.245 53.362 Q 82.8 53.521 82.947 54.087 A 1.842 1.842 0 0 1 83 54.55 L 83 65.4 A 1.799 1.799 0 0 1 82.938 65.895 Q 82.779 66.45 82.213 66.597 A 1.842 1.842 0 0 1 81.75 66.65 Z M 111.15 66.65 L 103.5 66.65 Q 102.35 66.65 101.5 65.8 L 91.5 55.8 A 2.62 2.62 0 0 1 90.652 53.893 A 3.323 3.323 0 0 1 90.65 53.8 L 90.65 24.5 A 2.775 2.775 0 0 1 90.873 23.377 A 2.664 2.664 0 0 1 91.5 22.5 L 101.5 12.5 Q 102.35 11.65 103.5 11.65 L 130.25 11.65 A 1.799 1.799 0 0 1 130.745 11.712 Q 131.3 11.871 131.447 12.437 A 1.842 1.842 0 0 1 131.5 12.9 L 131.5 65.4 A 1.799 1.799 0 0 1 131.438 65.895 Q 131.279 66.45 130.713 66.597 A 1.842 1.842 0 0 1 130.25 66.65 L 119.85 66.65 A 2.696 2.696 0 0 1 119.493 66.628 Q 119.317 66.605 119.173 66.555 A 1.032 1.032 0 0 1 118.875 66.4 A 12.082 12.082 0 0 1 118.576 66.162 Q 118.375 65.997 118.15 65.8 L 115.65 63.3 L 113.15 65.8 A 2.62 2.62 0 0 1 111.243 66.649 A 3.323 3.323 0 0 1 111.15 66.65 Z M 207.8 66.65 L 195.35 66.65 A 1.799 1.799 0 0 1 194.856 66.588 Q 194.301 66.429 194.154 65.863 A 1.842 1.842 0 0 1 194.1 65.4 L 194.1 57.3 Q 194.1 56.15 194.85 55.8 L 205.05 49.75 L 205.05 44.55 L 194.85 39.05 A 1.471 1.471 0 0 1 194.166 38.096 Q 194.101 37.831 194.1 37.51 A 3.162 3.162 0 0 1 194.1 37.5 L 194.1 21.55 A 2.839 2.839 0 0 1 194.123 21.181 Q 194.163 20.874 194.275 20.65 A 1.585 1.585 0 0 1 194.675 20.147 A 1.917 1.917 0 0 1 194.8 20.05 L 205.45 12.25 A 5.954 5.954 0 0 1 205.744 12.049 Q 206.022 11.871 206.237 11.788 A 1.349 1.349 0 0 1 206.35 11.75 Q 206.7 11.65 207.05 11.65 L 219.2 11.65 A 1.799 1.799 0 0 1 219.695 11.712 Q 220.25 11.871 220.397 12.437 A 1.842 1.842 0 0 1 220.45 12.9 L 220.45 20.75 Q 220.45 21.6 220.325 21.9 A 0.81 0.81 0 0 1 220.131 22.175 Q 220.041 22.261 219.918 22.335 A 1.695 1.695 0 0 1 219.8 22.4 L 210.35 27.5 L 210.35 33.3 L 220.45 38.3 Q 221.3 38.65 221.3 39.8 L 221.3 55.15 A 2.969 2.969 0 0 1 221.163 56.075 A 2.408 2.408 0 0 1 220.45 57.15 L 209.8 66 A 2.869 2.869 0 0 1 208.418 66.603 A 3.899 3.899 0 0 1 207.8 66.65 Z M 28 66.65 L 12.85 66.65 Q 11.7 66.65 10.85 65.8 L 0.85 55.8 A 2.62 2.62 0 0 1 0.002 53.893 A 3.323 3.323 0 0 1 0 53.8 L 0 24.5 A 2.775 2.775 0 0 1 0.223 23.377 A 2.664 2.664 0 0 1 0.85 22.5 L 10.85 12.5 Q 11.7 11.65 12.85 11.65 L 28 11.65 A 2.775 2.775 0 0 1 29.124 11.873 A 2.664 2.664 0 0 1 30 12.5 L 40 22.5 A 2.62 2.62 0 0 1 40.849 24.407 A 3.323 3.323 0 0 1 40.85 24.5 L 40.85 53.8 A 2.775 2.775 0 0 1 40.628 54.924 A 2.664 2.664 0 0 1 40 55.8 L 30 65.8 A 2.62 2.62 0 0 1 28.093 66.649 A 3.323 3.323 0 0 1 28 66.65 Z M 159 26.25 L 159 55 L 165.3 55 Q 166.95 55 167.55 54.35 A 1.801 1.801 0 0 0 167.892 53.785 Q 168.104 53.249 168.142 52.422 A 8.148 8.148 0 0 0 168.15 52.05 L 168.15 26.25 Q 168.15 24.897 167.747 24.217 A 1.575 1.575 0 0 0 167.55 23.95 A 1.618 1.618 0 0 0 166.991 23.57 Q 166.364 23.3 165.3 23.3 L 161.8 23.3 Q 160.464 23.3 159.826 23.753 A 1.436 1.436 0 0 0 159.6 23.95 A 1.801 1.801 0 0 0 159.259 24.515 Q 159.046 25.051 159.008 25.878 A 8.148 8.148 0 0 0 159 26.25 Z M 109.35 55 L 112.85 55 Q 114.186 55 114.825 54.547 A 1.436 1.436 0 0 0 115.05 54.35 A 1.801 1.801 0 0 0 115.392 53.785 Q 115.604 53.249 115.642 52.422 A 8.148 8.148 0 0 0 115.65 52.05 L 115.65 23.3 L 109.35 23.3 Q 107.7 23.3 107.1 23.95 A 1.801 1.801 0 0 0 106.759 24.515 Q 106.546 25.051 106.508 25.878 A 8.148 8.148 0 0 0 106.5 26.25 L 106.5 52.05 Q 106.5 53.403 106.903 54.083 A 1.575 1.575 0 0 0 107.1 54.35 A 1.618 1.618 0 0 0 107.659 54.73 Q 108.287 55 109.35 55 Z M 18.7 55 L 22.2 55 Q 23.536 55 24.175 54.547 A 1.436 1.436 0 0 0 24.4 54.35 A 1.801 1.801 0 0 0 24.742 53.785 Q 24.954 53.249 24.992 52.422 A 8.148 8.148 0 0 0 25 52.05 L 25 26.25 Q 25 24.897 24.597 24.217 A 1.575 1.575 0 0 0 24.4 23.95 Q 23.86 23.365 22.511 23.307 A 7.164 7.164 0 0 0 22.2 23.3 L 18.7 23.3 Q 17.05 23.3 16.45 23.95 A 1.801 1.801 0 0 0 16.109 24.515 Q 15.896 25.051 15.858 25.878 A 8.148 8.148 0 0 0 15.85 26.25 L 15.85 52.05 Q 15.85 53.403 16.253 54.083 A 1.575 1.575 0 0 0 16.45 54.35 A 1.618 1.618 0 0 0 17.009 54.73 Q 17.637 55 18.7 55 Z" vector-effect="non-scaling-stroke"/></g></svg>